# xmcd
# 
# Track frame offsets:
#     150
#     23812
#     41311
#     55368
#     71304
#     94112
#     114882
#     128032
#     144301
#     163029
#     180584
#     197114
#     225274
#     244712
# 
# Disc length: 3693
# 
# Revision: 3
# Processed by: cddbd v1.5.2PL0 Copyright (c) Steve Scherf et al.
# Submitted via: fre:ac v1.0.31
# 
DISCID=ab0e6b0e
DTITLE=The Original Blues Brothers Band - The Last Shade Of Blue Before Black
DYEAR=2017
DGENRE=R&B
TTITLE0=Baby What You Want Me To Do
TTITLE1=Cherry Street
TTITLE2=On A Saturday Night
TTITLE3=Itch And Scratch
TTITLE4=Don't Go No Further
TTITLE5=You Left The Water Running
TTITLE6=Don't Forget About James Brown
TTITLE7=Sex Machine
TTITLE8=Your Feet's Too Big
TTITLE9=21st Century Baby
TTITLE10=Blues In My Feet
TTITLE11=Qualified
TTITLE12=I Got My Mojo Working
TTITLE13=The Last Shade Of Blue Before Black
EXTD=
EXTT0=
EXTT1=
EXTT2=
EXTT3=
EXTT4=
EXTT5=
EXTT6=
EXTT7=
EXTT8=
EXTT9=
EXTT10=
EXTT11=
EXTT12=
EXTT13=
PLAYORDER=
